<svg width="570" height="75" viewBox="0 0 570 75" fill="none" xmlns="http://www.w3.org/2000/svg">
<g clip-path="url(#clip0_2_20)">
<path d="M13.2908 0.993652H0V73.8974H45.5945V62.8288H13.2908V0.993652Z" fill="#231F20"/>
<path d="M70.3806 0.993652H57.0898V73.8974H70.3806V0.993652Z" fill="#231F20"/>
<path d="M123.712 53.8201H122.858L101.079 0.993652H84.8174V73.8974H97.5681V23.704H98.2468L118.522 73.6798H128.047L148.323 23.8128H149.001V73.8974H161.752V0.993652H145.491L123.712 53.8201Z" fill="#231F20"/>
<path d="M189.508 42.9255H221.461V31.8568H189.508V12.0696H223.928V0.993652H176.225V73.8974H224.22V62.8288H189.508V42.9255Z" fill="#231F20"/>
<path d="M284.514 39.1537C282.471 37.4927 280.164 36.1145 277.603 35.0265C275.033 33.9385 272.369 33.0681 269.596 32.4298L262.721 30.718C261.217 30.3626 259.721 29.9201 258.247 29.3979C256.765 28.8757 255.415 28.2301 254.196 27.4612C252.977 26.6924 252.014 25.7494 251.313 24.6324C250.605 23.5154 250.255 22.2025 250.255 20.6793C250.277 18.8515 250.817 17.2267 251.868 15.8051C252.919 14.3834 254.437 13.2519 256.415 12.425C258.4 11.5981 260.772 11.1774 263.545 11.1774C267.487 11.1774 270.691 12.0405 273.165 13.7741C275.639 15.5077 277.041 17.9303 277.376 21.0347H290.163C290.09 16.9293 288.93 13.2954 286.689 10.1257C284.441 6.95593 281.361 4.47527 277.427 2.68368C273.501 0.892096 268.932 -0.00732422 263.728 -0.00732422C258.524 -0.00732422 253.999 0.892096 249.941 2.68368C245.883 4.47527 242.679 6.98494 240.321 10.2127C237.971 13.4405 236.796 17.205 236.796 21.499C236.796 26.7214 238.548 30.8993 242.044 34.0473C245.54 37.1953 250.313 39.5381 256.356 41.0758L264.699 43.2083C267.326 43.8757 269.625 44.63 271.596 45.4714C273.566 46.3128 275.099 47.3573 276.201 48.6049C277.296 49.8524 277.858 51.4192 277.887 53.3196C277.865 55.4085 277.23 57.2291 275.99 58.7814C274.749 60.3336 273.034 61.5449 270.851 62.4153C268.669 63.2785 266.129 63.7137 263.239 63.7137C260.349 63.7137 257.969 63.3002 255.736 62.4661C253.503 61.6392 251.692 60.3771 250.306 58.6943C248.919 57.0115 248.131 54.9008 247.941 52.3549H234.869C235.059 57.1929 236.329 61.2983 238.686 64.6711C241.036 68.0439 244.314 70.6044 248.503 72.3597C252.692 74.115 257.641 74.9927 263.348 74.9927C269.056 74.9927 274.231 74.086 278.376 72.2727C282.522 70.4593 285.689 67.9279 287.886 64.6929C290.083 61.4506 291.178 57.7006 291.178 53.4284C291.178 50.2731 290.579 47.5168 289.39 45.1668C288.193 42.8167 286.58 40.8147 284.536 39.1537H284.514Z" fill="#231F20"/>
<path d="M350.261 31.8568H316.271V0.993652H302.98V73.8974H316.271V42.9255H350.261V73.8974H363.581V0.993652H350.261V31.8568Z" fill="#231F20"/>
<path d="M399.081 0.993652L373.259 73.8974H387.44L393.505 55.9235H421.087L427.166 73.8974H441.348L415.481 0.993652H399.074H399.081ZM397.089 45.3118L407 15.9429H407.577L417.503 45.3118H397.089Z" fill="#231F20"/>
<path d="M492.598 44.4052C496.467 42.5411 499.401 39.8936 501.393 36.47C503.386 33.0392 504.386 28.9918 504.386 24.3134C504.386 19.6349 503.4 15.5875 501.43 12.0841C499.459 8.58076 496.561 5.86074 492.722 3.91684C488.891 1.97293 484.154 1.00098 478.519 1.00098H451.011V73.9047H464.302V47.205H477.826L492.241 73.9047H507.071L491.197 45.029C491.679 44.8332 492.146 44.6301 492.598 44.4125V44.4052ZM464.302 12.0334H476.483C479.804 12.0334 482.512 12.5121 484.614 13.4768C486.716 14.4415 488.277 15.8414 489.307 17.6765C490.336 19.5189 490.847 21.7311 490.847 24.3134C490.847 26.8956 490.336 29.0788 489.321 30.8487C488.307 32.6185 486.745 33.9604 484.65 34.8743C482.548 35.7882 479.848 36.2452 476.556 36.2452H464.309V12.0334H464.302Z" fill="#231F20"/>
<path d="M567.044 12.7224C565.073 9.08118 562.176 6.21609 558.337 4.12711C554.497 2.03814 549.768 0.993652 544.133 0.993652H516.625V73.8974H529.916V49.2649H543.958C549.615 49.2649 554.381 48.2277 558.249 46.1532C562.117 44.0788 565.044 41.2209 567.022 37.5942C569.007 33.9675 569.992 29.8114 569.992 25.1329C569.992 20.4545 569.007 16.3708 567.037 12.7296L567.044 12.7224ZM554.935 31.9946C553.921 33.9893 552.359 35.556 550.264 36.6948C548.17 37.8336 545.462 38.4066 542.17 38.4066H529.923V12.0333H542.104C545.425 12.0333 548.14 12.5846 550.25 13.6871C552.359 14.7896 553.928 16.3273 554.943 18.293C555.957 20.2659 556.468 22.5435 556.468 25.1257C556.468 27.7079 555.957 29.9999 554.943 31.9946H554.935Z" fill="#231F20"/>
</g>
<defs>
<clipPath id="clip0_2_20">
<rect width="570" height="75" fill="white"/>
</clipPath>
</defs>
</svg>
